<?xml version="1.0" standalone="no"?>
<!DOCTYPE svg PUBLIC "-//W3C//DTD SVG 1.1//EN" "http://www.w3.org/Graphics/SVG/1.1/DTD/svg11.dtd">
<svg width="618mm" height="280mm" viewBox="0 -280 618 280" xmlns="http://www.w3.org/2000/svg" version="1.1">
<title>OpenSCAD Model</title>
<path d="
M 618,-280 L 0,-280 L 0,-0 L 618,-0 z
M 469,-146 L 469,-272 L 612,-272 L 612,-146 z
M 316,-146 L 316,-272 L 459,-272 L 459,-146 z
M 163,-146 L 163,-272 L 306,-272 L 306,-146 z
M 10,-146 L 10,-272 L 153,-272 L 153,-146 z
M 469,-10 L 469,-136 L 612,-136 L 612,-10 z
M 10,-10 L 10,-136 L 153,-136 L 153,-10 z
M 163,-10 L 163,-136 L 306,-136 L 306,-10 z
M 316,-10 L 316,-136 L 459,-136 L 459,-10 z
" stroke="black" fill="lightgray" stroke-width="0.5"/>
</svg>
