  0
SECTION
  2
BLOCKS
  0
ENDSEC
  0
SECTION
  2
ENTITIES
  0
LINE
  8
0
 10
618
 20
280
 11
0
 21
280
  0
LINE
  8
0
 10
0
 20
280
 11
0
 21
0
  0
LINE
  8
0
 10
0
 20
0
 11
618
 21
0
  0
LINE
  8
0
 10
618
 20
0
 11
618
 21
280
  0
LINE
  8
0
 10
469
 20
146
 11
469
 21
272
  0
LINE
  8
0
 10
469
 20
272
 11
612
 21
272
  0
LINE
  8
0
 10
612
 20
272
 11
612
 21
146
  0
LINE
  8
0
 10
612
 20
146
 11
469
 21
146
  0
LINE
  8
0
 10
316
 20
146
 11
316
 21
272
  0
LINE
  8
0
 10
316
 20
272
 11
459
 21
272
  0
LINE
  8
0
 10
459
 20
272
 11
459
 21
146
  0
LINE
  8
0
 10
459
 20
146
 11
316
 21
146
  0
LINE
  8
0
 10
163
 20
146
 11
163
 21
272
  0
LINE
  8
0
 10
163
 20
272
 11
306
 21
272
  0
LINE
  8
0
 10
306
 20
272
 11
306
 21
146
  0
LINE
  8
0
 10
306
 20
146
 11
163
 21
146
  0
LINE
  8
0
 10
10
 20
146
 11
10
 21
272
  0
LINE
  8
0
 10
10
 20
272
 11
153
 21
272
  0
LINE
  8
0
 10
153
 20
272
 11
153
 21
146
  0
LINE
  8
0
 10
153
 20
146
 11
10
 21
146
  0
LINE
  8
0
 10
469
 20
10
 11
469
 21
136
  0
LINE
  8
0
 10
469
 20
136
 11
612
 21
136
  0
LINE
  8
0
 10
612
 20
136
 11
612
 21
10
  0
LINE
  8
0
 10
612
 20
10
 11
469
 21
10
  0
LINE
  8
0
 10
10
 20
10
 11
10
 21
136
  0
LINE
  8
0
 10
10
 20
136
 11
153
 21
136
  0
LINE
  8
0
 10
153
 20
136
 11
153
 21
10
  0
LINE
  8
0
 10
153
 20
10
 11
10
 21
10
  0
LINE
  8
0
 10
163
 20
10
 11
163
 21
136
  0
LINE
  8
0
 10
163
 20
136
 11
306
 21
136
  0
LINE
  8
0
 10
306
 20
136
 11
306
 21
10
  0
LINE
  8
0
 10
306
 20
10
 11
163
 21
10
  0
LINE
  8
0
 10
316
 20
10
 11
316
 21
136
  0
LINE
  8
0
 10
316
 20
136
 11
459
 21
136
  0
LINE
  8
0
 10
459
 20
136
 11
459
 21
10
  0
LINE
  8
0
 10
459
 20
10
 11
316
 21
10
  0
ENDSEC
  0
SECTION
  2
OBJECTS
  0
DICTIONARY
  0
ENDSEC
  0
EOF
