solid OpenSCAD_Model
  facet normal -1 0 0
    outer loop
      vertex 0 0 0
      vertex 0 282 11
      vertex 0 282 0
    endloop
  endfacet
  facet normal -1 -0 0
    outer loop
      vertex 0 282 11
      vertex 0 0 0
      vertex 0 0 11
    endloop
  endfacet
  facet normal 1 -0 0
    outer loop
      vertex 622 0 11
      vertex 622 282 0
      vertex 622 282 11
    endloop
  endfacet
  facet normal 1 0 0
    outer loop
      vertex 622 282 0
      vertex 622 0 11
      vertex 622 0 0
    endloop
  endfacet
  facet normal 0 -1 0
    outer loop
      vertex 0 0 0
      vertex 622 0 11
      vertex 0 0 11
    endloop
  endfacet
  facet normal 0 -1 -0
    outer loop
      vertex 622 0 11
      vertex 0 0 0
      vertex 622 0 0
    endloop
  endfacet
  facet normal 0 1 -0
    outer loop
      vertex 622 282 0
      vertex 0 282 11
      vertex 622 282 11
    endloop
  endfacet
  facet normal 0 1 0
    outer loop
      vertex 0 282 11
      vertex 622 282 0
      vertex 0 282 0
    endloop
  endfacet
  facet normal -0 0 1
    outer loop
      vertex 0 282 11
      vertex 622 0 11
      vertex 622 282 11
    endloop
  endfacet
  facet normal 0 0 1
    outer loop
      vertex 622 0 11
      vertex 0 282 11
      vertex 0 0 11
    endloop
  endfacet
  facet normal 0 0 -1
    outer loop
      vertex 0 0 0
      vertex 622 282 0
      vertex 622 0 0
    endloop
  endfacet
  facet normal -0 0 -1
    outer loop
      vertex 622 282 0
      vertex 0 0 0
      vertex 0 282 0
    endloop
  endfacet
endsolid OpenSCAD_Model
