solid OpenSCAD_Model
  facet normal -1 0 0
    outer loop
      vertex 0 0 0
      vertex 0 280 11
      vertex 0 280 0
    endloop
  endfacet
  facet normal -1 -0 0
    outer loop
      vertex 0 280 11
      vertex 0 0 0
      vertex 0 0 11
    endloop
  endfacet
  facet normal 1 -0 0
    outer loop
      vertex 618 0 11
      vertex 618 280 0
      vertex 618 280 11
    endloop
  endfacet
  facet normal 1 0 0
    outer loop
      vertex 618 280 0
      vertex 618 0 11
      vertex 618 0 0
    endloop
  endfacet
  facet normal 0 -1 0
    outer loop
      vertex 0 0 0
      vertex 618 0 11
      vertex 0 0 11
    endloop
  endfacet
  facet normal 0 -1 -0
    outer loop
      vertex 618 0 11
      vertex 0 0 0
      vertex 618 0 0
    endloop
  endfacet
  facet normal 0 1 -0
    outer loop
      vertex 618 280 0
      vertex 0 280 11
      vertex 618 280 11
    endloop
  endfacet
  facet normal 0 1 0
    outer loop
      vertex 0 280 11
      vertex 618 280 0
      vertex 0 280 0
    endloop
  endfacet
  facet normal -0 0 1
    outer loop
      vertex 0 280 11
      vertex 618 0 11
      vertex 618 280 11
    endloop
  endfacet
  facet normal 0 0 1
    outer loop
      vertex 618 0 11
      vertex 0 280 11
      vertex 0 0 11
    endloop
  endfacet
  facet normal 0 0 -1
    outer loop
      vertex 0 0 0
      vertex 618 280 0
      vertex 618 0 0
    endloop
  endfacet
  facet normal -0 0 -1
    outer loop
      vertex 618 280 0
      vertex 0 0 0
      vertex 0 280 0
    endloop
  endfacet
endsolid OpenSCAD_Model
